<svg width="335" height="85" viewBox="0 0 335 85" fill="none" xmlns="http://www.w3.org/2000/svg">
<path d="M91.25 33.9375C92.75 33.2708 95.9375 32.0833 100.812 30.375C101.583 30.1042 102.438 29.8333 103.375 29.5625V59.375L103.438 59.6562C104.562 61.9688 106.521 63.4167 109.312 64H91.25C93.8333 63.5 95.7917 62.0417 97.125 59.625L97.1875 59.375V36.5C97.1875 35.9792 97.0521 35.6146 96.7812 35.4062C96.3438 35.0521 95.6458 34.7812 94.6875 34.5938C92.6458 34.1562 91.5 33.9375 91.25 33.9375ZM97.4062 23.0625C96.6146 22.25 96.2188 21.2708 96.2188 20.125C96.2188 18.9792 96.6146 18.0104 97.4062 17.2188C98.1979 16.4062 99.1562 16 100.281 16C101.406 16 102.365 16.4062 103.156 17.2188C103.948 18.0104 104.344 18.9792 104.344 20.125C104.344 21.2708 103.948 22.25 103.156 23.0625C102.365 23.8542 101.406 24.25 100.281 24.25C99.1562 24.25 98.1979 23.8542 97.4062 23.0625ZM111.812 64C114.396 63.5 116.354 62.0417 117.688 59.625L117.75 59.375V36.5C117.75 35.9792 117.615 35.6146 117.344 35.4062C116.927 35.0729 116.292 34.8125 115.438 34.625C113.542 34.2083 112.333 33.9792 111.812 33.9375C112.521 33.625 115.708 32.4375 121.375 30.375C122.25 30.0625 123.104 29.7917 123.938 29.5625V31.9688L124.031 31.9062C126.115 30.3438 128.438 29.5625 131 29.5625C133.521 29.5625 135.844 30.3438 137.969 31.9062C140.073 33.4479 141.75 35.5938 143 38.3438C144.25 41.0938 144.875 44.0417 144.875 47.1875V47.375V57.8438C144.875 58.3646 145.01 58.7292 145.281 58.9375C145.698 59.2708 146.333 59.5312 147.188 59.7188C149.083 60.1354 150.292 60.3646 150.812 60.4062C149.646 60.9271 146.458 62.1146 141.25 63.9688C140.375 64.2812 139.521 64.5521 138.688 64.7812V47.3125V47.1875C138.688 42.4375 137.781 38.9167 135.969 36.625C134.26 34.4583 132.208 33.375 129.812 33.375C129.771 33.375 129.729 33.375 129.688 33.375C127.042 33.375 125.125 34.3333 123.938 36.25V59.375L124 59.6562C125.125 61.9688 127.083 63.4167 129.875 64H111.812ZM149.25 37.5L154.844 28.3125C154.719 28.8333 154.656 29.3646 154.656 29.9062C154.656 31.2604 155.396 31.9375 156.875 31.9375C156.917 31.9375 156.969 31.9375 157.031 31.9375H157.156H162.062V22.9375C162.062 22.4583 161.927 22.0938 161.656 21.8438C161.344 21.5521 160.667 21.3021 159.625 21.0938C158.458 20.8646 157.292 20.625 156.125 20.375C158.021 19.5417 161.208 18.3542 165.688 16.8125C166.479 16.5417 167.333 16.2708 168.25 16V31.9375H174.969H175.219C177.844 31.7917 179.812 31 181.125 29.5625L175.531 38.75C175.656 38.2292 175.719 37.6979 175.719 37.1562C175.719 35.8021 174.979 35.125 173.5 35.125C173.458 35.125 173.406 35.125 173.344 35.125H173.219H168.25V59.375L168.312 59.6562C169.438 61.9688 171.396 63.4167 174.188 64H156.125C158.708 63.5 160.667 62.0417 162 59.625L162.062 59.375V35.125H155.406H155.156C152.531 35.2708 150.562 36.0625 149.25 37.5ZM183 47.1562C183 44.0312 183.625 41.0938 184.875 38.3438C186.104 35.6354 187.781 33.4896 189.906 31.9062C192.01 30.3438 194.333 29.5625 196.875 29.5625C199.292 29.5625 201.573 30.2708 203.719 31.6875C205.281 32.5417 206.677 33.9896 207.906 36.0312C208.781 37.4896 209.271 39.0729 209.375 40.7812C209.354 44.4688 207.698 47.4896 204.406 49.8438C201.615 51.8438 198.312 52.8438 194.5 52.8438C194.458 52.8438 192.969 52.7604 190.031 52.5938C190.552 54.7396 191.25 56.4792 192.125 57.8125C193.604 60.0625 195.542 61.1875 197.938 61.1875H198C200.562 61.1875 202.74 60.0833 204.531 57.875C205.26 56.9792 205.917 55.75 206.5 54.1875L210.125 55.25C210.042 55.5833 209.969 55.8125 209.906 55.9375C208.156 59.1458 206.479 61.2917 204.875 62.375C202.271 63.9583 199.792 64.75 197.438 64.75H197.344C194.49 64.75 192.01 63.9792 189.906 62.4375C187.802 60.8958 186.125 58.75 184.875 56C183.625 53.25 183 50.3021 183 47.1562ZM203.5 40.75C203.5 38.3958 202.875 36.5417 201.625 35.1875C200.542 34 199.042 33.3229 197.125 33.1562H197.062C194.771 33.1562 192.938 34.2708 191.562 36.5C190.521 38.2083 189.875 40.3333 189.625 42.875C189.479 44.3542 189.406 45.9583 189.406 47.6875C189.406 48.2708 189.448 48.9479 189.531 49.7188C191.427 49.7604 193.323 49.7812 195.219 49.7812C196.198 49.7812 196.896 49.7292 197.312 49.625C199.417 49.1042 200.875 48.2292 201.688 47C202.896 44.9792 203.5 42.8958 203.5 40.75ZM214.812 64C217.396 63.5 219.354 62.0417 220.688 59.625L220.75 59.375V37.5312C220.75 37.0312 220.615 36.6667 220.344 36.4375C219.969 36.1042 219.333 35.8438 218.438 35.6562C216.562 35.2396 215.354 35.0104 214.812 34.9688C216.25 34.3229 219.438 33.1354 224.375 31.4062C227.875 30.1771 230.896 29.5625 233.438 29.5625C233.521 29.5625 233.604 29.5625 233.688 29.5625C237.062 29.5625 240 30.7292 242.5 33.0625C244.583 35.4792 245.625 37.9062 245.625 40.3438C245.625 40.4062 245.625 40.4583 245.625 40.5C245.625 41.6458 245.229 42.6458 244.438 43.5C243.667 44.3333 242.708 44.75 241.562 44.75C240.417 44.75 239.458 44.3542 238.688 43.5625C237.896 42.75 237.5 41.8021 237.5 40.7188C237.5 40.6771 237.5 40.6458 237.5 40.625C237.5 39.4375 237.896 38.4583 238.688 37.6875C239.458 36.9375 240.354 36.5417 241.375 36.5C241.229 35.6458 240.208 34.6667 238.312 33.5625C237.375 33.0208 236.156 32.75 234.656 32.75C234.406 32.75 234.156 32.7604 233.906 32.7812C231.635 32.9688 229.76 33.5833 228.281 34.625C228.177 34.6875 227.875 34.9583 227.375 35.4375C227.083 35.7083 226.938 36.4062 226.938 37.5312V59.375L227 59.6562C228.125 61.9688 230.083 63.4167 232.875 64H214.812ZM255.844 47.0625C255.844 51.75 256.365 55.2083 257.406 57.4375C258.76 60.3333 260.615 61.7812 262.969 61.7812C263.281 61.7812 263.594 61.7812 263.906 61.7812C265.635 61.7812 267.302 60.9792 268.906 59.375L269.219 58.9062C269.531 58.5729 269.688 57.875 269.688 56.8125V37.5312C269.688 36.4688 269.542 35.7708 269.25 35.4375L268.938 34.9688C267.333 33.3646 265.667 32.5625 263.938 32.5625C263.625 32.5625 263.312 32.5625 263 32.5625C260.646 32.5625 258.792 34.0104 257.438 36.9062C256.375 39.1771 255.844 42.5625 255.844 47.0625ZM249.062 46.7812C249.062 43.6979 249.677 40.8333 250.906 38.1875C252.135 35.5208 253.823 33.4271 255.969 31.9062C258.177 30.3438 260.656 29.5625 263.406 29.5625C265.802 29.5625 268.75 30.1771 272.25 31.4062C277.271 33.1771 280.458 34.3646 281.812 34.9688C281.354 34.9896 280.146 35.2188 278.188 35.6562C277.354 35.8438 276.719 36.1042 276.281 36.4375C276.01 36.6458 275.875 37.0104 275.875 37.5312V56.8125C275.875 57.3542 276 57.7188 276.25 57.9062C276.688 58.2396 277.323 58.5 278.156 58.6875C280.115 59.125 281.323 59.3542 281.781 59.375C280.427 59.9792 277.24 61.1667 272.219 62.9375C268.719 64.1667 265.771 64.7812 263.375 64.7812C260.625 64.7812 258.146 64 255.938 62.4375C253.792 60.9167 252.104 58.8229 250.875 56.1562C249.667 53.5521 249.062 50.4271 249.062 46.7812Z" fill="url(#paint0_linear_12_3)"/>
<path d="M41 0C63.6437 0 82 18.3563 82 41C82 63.6437 63.6437 82 41 82C37.4408 82 33.988 81.5448 30.6953 80.6924V42.1475L41 47.707L51.3047 42.1475V58H60V25H51.3047L41 37.0303L30.6953 25H22V77.3379C8.92337 70.4865 0 56.7865 0 41C0 18.3563 18.3563 0 41 0Z" fill="url(#paint1_linear_12_3)"/>
<defs>
<linearGradient id="paint0_linear_12_3" x1="90" y1="46" x2="335" y2="46" gradientUnits="userSpaceOnUse">
<stop stop-color="#2E1320"/>
<stop offset="1" stop-color="#7C3458"/>
</linearGradient>
<linearGradient id="paint1_linear_12_3" x1="82" y1="41" x2="-6.42204e-07" y2="48.5" gradientUnits="userSpaceOnUse">
<stop stop-color="#913D66"/>
<stop offset="1" stop-color="#2B121E"/>
</linearGradient>
</defs>
</svg>
